<svg width="45" height="45" viewBox="0 0 45 45" fill="none" xmlns="http://www.w3.org/2000/svg">
<path d="M22.2497 10.132C29.1773 10.132 34.4218 15.8119 34.4218 22.3102C34.4218 29.8467 28.2748 34.525 22.2253 34.525C20.2251 34.525 18.0053 33.9875 16.2246 32.9371C15.6026 32.5584 15.0782 32.2775 14.4074 32.4973L11.9437 33.2302C11.3216 33.4257 10.7606 32.9371 10.9435 32.2775L11.7607 29.5413C11.8949 29.1627 11.8705 28.7596 11.6753 28.442C10.6264 26.5121 10.0288 24.3989 10.0288 22.3468C10.0288 15.9218 15.1635 10.132 22.2497 10.132ZM27.8235 20.7955C26.9576 20.7955 26.2624 21.4918 26.2624 22.359C26.2624 23.2141 26.9576 23.9225 27.8235 23.9225C28.6895 23.9225 29.3847 23.2141 29.3847 22.359C29.3847 21.4918 28.6895 20.7955 27.8235 20.7955ZM22.2009 20.7955C21.3472 20.7833 20.6398 21.4918 20.6398 22.3468C20.6398 23.2141 21.335 23.9103 22.2009 23.9225C23.0669 23.9225 23.7621 23.2141 23.7621 22.359C23.7621 21.4918 23.0669 20.7955 22.2009 20.7955ZM16.5783 20.7955C15.7124 20.7955 15.0172 21.4918 15.0172 22.359C15.0172 23.2141 15.7246 23.9225 16.5783 23.9225C17.4443 23.9103 18.1395 23.2141 18.1395 22.359C18.1395 21.4918 17.4443 20.7955 16.5783 20.7955Z" fill="#5D7285"/>
</svg>
