<svg width="45" height="45" viewBox="0 0 45 45" fill="none" xmlns="http://www.w3.org/2000/svg">
<path d="M18.7307 32.8561V29.1267C18.7307 28.1748 19.5081 27.403 20.4671 27.403H23.9726C24.4331 27.403 24.8747 27.5846 25.2004 27.9079C25.526 28.2311 25.7089 28.6696 25.7089 29.1267V32.8561C25.706 33.2519 25.8624 33.6325 26.1433 33.9133C26.4241 34.1942 26.8064 34.3522 27.205 34.3522H29.5966C30.7136 34.3551 31.7858 33.9166 32.5767 33.1335C33.3675 32.3505 33.812 31.2872 33.812 30.1783V19.554C33.812 18.6583 33.412 17.8087 32.7199 17.234L24.5841 10.7835C23.1689 9.65253 21.1412 9.68905 19.7682 10.8703L11.818 17.234C11.0932 17.7917 10.66 18.6439 10.6386 19.554V30.1675C10.6386 32.4786 12.5259 34.3522 14.8539 34.3522H17.1909C18.019 34.3522 18.692 33.689 18.698 32.8669L18.7307 32.8561Z" fill="#5D7285"/>
</svg>
