<svg width="45" height="45" viewBox="0 0 45 45" fill="none" xmlns="http://www.w3.org/2000/svg">
<path d="M27.511 10.0456C31.6448 10.0456 34.4218 12.9461 34.4218 17.2619V27.2223C34.4218 31.5381 31.6448 34.4386 27.5098 34.4386H16.9396C12.8058 34.4386 10.0288 31.5381 10.0288 27.2223V17.2619C10.0288 12.9461 12.8058 10.0456 16.9396 10.0456H27.511ZM28.856 22.913C27.5487 22.0973 26.5393 23.2427 26.267 23.609C26.0045 23.9627 25.7789 24.3529 25.5409 24.7431C24.9596 25.706 24.2936 26.8161 23.1408 27.4618C21.4655 28.3894 20.1936 27.5348 19.2787 26.913C18.9353 26.6814 18.6017 26.4624 18.2693 26.3164C17.45 25.9627 16.713 26.3655 15.619 27.7551C15.045 28.4813 14.4759 29.2013 13.8995 29.9187C13.5548 30.3479 13.637 31.01 14.1018 31.297C14.8438 31.7539 15.749 31.9993 16.7718 31.9993H27.0507C27.6308 31.9993 28.2122 31.92 28.7665 31.7387C30.015 31.3309 31.006 30.397 31.5236 29.1635C31.9602 28.1264 32.1724 26.8677 31.764 25.8205C31.6278 25.4731 31.4242 25.1496 31.1385 24.8652C30.3891 24.1213 29.6888 23.4265 28.856 22.913ZM17.9551 14.9242C16.2737 14.9242 14.9074 16.2923 14.9074 17.9733C14.9074 19.6543 16.2737 21.0224 17.9551 21.0224C19.6354 21.0224 21.0029 19.6543 21.0029 17.9733C21.0029 16.2923 19.6354 14.9242 17.9551 14.9242Z" fill="#5D7285"/>
</svg>
