<svg width="45" height="45" viewBox="0 0 45 45" fill="none" xmlns="http://www.w3.org/2000/svg">
<path d="M27.3369 10.5888C31.1044 10.5888 33.2022 12.7598 33.2022 16.4797V29.0787C33.2022 32.8596 31.1044 34.9818 27.3369 34.9818H17.115C13.4073 34.9818 11.2485 32.8596 11.2485 29.0787V16.4797C11.2485 12.7598 13.4073 10.5888 17.115 10.5888H27.3369ZM17.4443 27.3468C17.0784 27.3102 16.7247 27.4809 16.5296 27.7981C16.3344 28.103 16.3344 28.5054 16.5296 28.8226C16.7247 29.1275 17.0784 29.3104 17.4443 29.2616H27.0064C27.493 29.2128 27.8601 28.7969 27.8601 28.3103C27.8601 27.8102 27.493 27.3956 27.0064 27.3468H17.4443ZM27.0064 21.784H17.4443C16.9186 21.784 16.493 22.2121 16.493 22.7365C16.493 23.261 16.9186 23.6878 17.4443 23.6878H27.0064C27.5308 23.6878 27.9577 23.261 27.9577 22.7365C27.9577 22.2121 27.5308 21.784 27.0064 21.784ZM21.0898 16.2602H17.4443V16.2724C16.9186 16.2724 16.493 16.6992 16.493 17.2237C16.493 17.7481 16.9186 18.175 17.4443 18.175H21.0898C21.6155 18.175 22.0424 17.7481 22.0424 17.2103C22.0424 16.687 21.6155 16.2602 21.0898 16.2602Z" fill="#5D7285"/>
</svg>
