<svg width="45" height="45" viewBox="0 0 45 45" fill="none" xmlns="http://www.w3.org/2000/svg">
<path d="M22.2314 10.2184C25.5 10.2184 28.1872 12.7869 28.3236 16.0414H28.2917C28.2955 16.136 28.2774 16.2302 28.2386 16.3166H28.429C29.9133 16.3166 31.4676 17.3454 32.0909 19.829L32.1586 20.122L33.0964 27.6773C33.7712 32.4962 31.1348 34.5227 27.5384 34.6085L27.2972 34.6114H17.1864C13.5314 34.6114 10.7149 33.2795 11.3342 28.0052L11.3764 27.6773L12.325 20.122C12.7927 17.4475 14.363 16.3926 15.876 16.3206L16.0438 16.3166H16.1391C16.1231 16.2256 16.1231 16.1324 16.1391 16.0414C16.2755 12.7869 18.9628 10.2184 22.2314 10.2184ZM18.6847 20.3772C18.0894 20.3772 17.6068 20.8739 17.6068 21.4866C17.6068 22.0994 18.0894 22.5961 18.6847 22.5961C19.28 22.5961 19.7626 22.0994 19.7626 21.4866L19.7542 21.3475C19.6877 20.8004 19.2342 20.3772 18.6847 20.3772ZM25.745 20.3772C25.1497 20.3772 24.6671 20.8739 24.6671 21.4866C24.6671 22.0994 25.1497 22.5961 25.745 22.5961C26.3403 22.5961 26.8229 22.0994 26.8229 21.4866C26.8229 20.8739 26.3403 20.3772 25.745 20.3772ZM22.1835 11.8068C19.8368 11.8068 17.9344 13.7027 17.9344 16.0414C17.9505 16.1324 17.9505 16.2256 17.9344 16.3166H26.4858C26.4519 16.2287 26.4339 16.1355 26.4327 16.0414C26.4327 13.7027 24.5303 11.8068 22.1835 11.8068Z" fill="#5D7285"/>
</svg>
