<svg width="45" height="45" viewBox="0 0 45 45" fill="none" xmlns="http://www.w3.org/2000/svg">
<path d="M27.9153 10.515C29.6698 10.4053 31.4 11.0145 32.7036 12.2085C33.8977 13.5122 34.5069 15.2423 34.4094 17.009V28.3888C34.5191 30.1554 33.8977 31.8855 32.7158 33.1892C31.4121 34.3832 29.6698 34.9924 27.9153 34.8828H16.5355C14.7688 34.9924 13.0387 34.3832 11.735 33.1892C10.541 31.8855 9.93176 30.1554 10.0414 28.3888V17.009C9.93176 15.2423 10.541 13.5122 11.735 12.2085C13.0387 11.0145 14.7688 10.4053 16.5355 10.515H27.9153ZM27.5985 16.083C26.8431 15.3276 25.6247 15.3276 24.8693 16.083L24.053 16.9115C23.9312 17.0334 23.9312 17.2405 24.053 17.3623C24.053 17.3623 24.0769 17.3861 24.1195 17.4284L24.4192 17.7265C24.5925 17.899 24.8089 18.1144 25.0262 18.331L25.763 19.0674C25.9167 19.2218 26.0187 19.3253 26.0268 19.3361C26.1608 19.4823 26.2461 19.6773 26.2461 19.8966C26.2461 20.3352 25.8928 20.7007 25.442 20.7007C25.2349 20.7007 25.0399 20.6154 24.9059 20.4814L22.8712 18.4589C22.7737 18.3614 22.6031 18.3614 22.5056 18.4589L16.6939 24.2706C16.2918 24.6727 16.0603 25.2088 16.0481 25.7814L15.975 28.669C15.975 28.8274 16.0238 28.9736 16.1334 29.0832C16.2431 29.1929 16.3893 29.2538 16.5477 29.2538H19.4109C19.9957 29.2538 20.5562 29.0223 20.9826 28.6081L29.1825 20.3839C29.9257 19.6285 29.9257 18.4101 29.1825 17.6669L27.5985 16.083Z" fill="#5D7285"/>
</svg>
