<svg width="45" height="44" viewBox="0 0 45 44" fill="none" xmlns="http://www.w3.org/2000/svg">
<path d="M30.2276 24.5076C32.5449 24.5076 34.4218 26.3529 34.4218 28.6296C34.4218 30.905 32.5449 32.7503 30.2276 32.7503C27.9116 32.7503 26.0334 30.905 26.0334 28.6296C26.0334 26.3529 27.9116 24.5076 30.2276 24.5076ZM19.8876 26.8718C20.9026 26.8718 21.7265 27.6813 21.7265 28.6785C21.7265 29.6744 20.9026 30.4852 19.8876 30.4852H11.8678C10.8527 30.4852 10.0288 29.6744 10.0288 28.6785C10.0288 27.6813 10.8527 26.8718 11.8678 26.8718H19.8876ZM14.223 11.0676C16.5403 11.0676 18.4172 12.9129 18.4172 15.1883C18.4172 17.465 16.5403 19.3103 14.223 19.3103C11.9071 19.3103 10.0288 17.465 10.0288 15.1883C10.0288 12.9129 11.9071 11.0676 14.223 11.0676ZM32.5842 13.3829C33.5979 13.3829 34.4218 14.1924 34.4218 15.1883C34.4218 16.1855 33.5979 16.995 32.5842 16.995H24.5644C23.5494 16.995 22.7254 16.1855 22.7254 15.1883C22.7254 14.1924 23.5494 13.3829 24.5644 13.3829H32.5842Z" fill="#5D7285"/>
</svg>
