<svg width="45" height="44" viewBox="0 0 45 44" fill="none" xmlns="http://www.w3.org/2000/svg">
<path d="M22.1631 25.0555C26.348 25.0555 29.9212 25.719 29.9212 28.3739C29.9212 31.0277 26.3709 31.7153 22.1631 31.7153C17.9783 31.7153 14.405 31.0518 14.405 28.398C14.405 25.7431 17.9553 25.0555 22.1631 25.0555ZM28.8542 23.4569C30.4541 23.4272 32.1741 23.6469 32.8097 23.8029C34.1562 24.0676 35.0419 24.608 35.4088 25.3934C35.719 26.0382 35.719 26.7862 35.4088 27.4299C34.8475 28.648 33.0379 29.0391 32.3346 29.1401C32.1894 29.1621 32.0725 29.0358 32.0878 28.8897C32.4471 25.5142 29.5891 23.9138 28.8498 23.5459C28.8181 23.5294 28.8116 23.5041 28.8149 23.4887C28.817 23.4777 28.8302 23.4602 28.8542 23.4569ZM15.296 23.4546L15.5972 23.4573C15.6213 23.4606 15.6333 23.4782 15.6354 23.4881C15.6387 23.5046 15.6322 23.5287 15.6016 23.5463C14.8612 23.9143 12.0032 25.5147 12.3625 28.889C12.3778 29.0362 12.262 29.1614 12.1168 29.1406C11.4135 29.0395 9.6039 28.6485 9.04257 27.4303C8.73133 26.7855 8.73133 26.0386 9.04257 25.3938C9.40951 24.6085 10.2941 24.068 11.6406 23.8022C12.2773 23.6473 13.9962 23.4277 15.5972 23.4573L15.296 23.4546ZM22.1631 12.2009C25.0124 12.2009 27.297 14.4966 27.297 17.3635C27.297 20.2293 25.0124 22.5272 22.1631 22.5272C19.3139 22.5272 17.0293 20.2293 17.0293 17.3635C17.0293 14.4966 19.3139 12.2009 22.1631 12.2009ZM29.1327 13.0618C31.8847 13.0618 34.0459 15.6662 33.3099 18.5671C32.813 20.5201 31.0143 21.8174 29.0103 21.7646C28.8094 21.7592 28.6117 21.7405 28.4206 21.7075C28.2819 21.6834 28.212 21.5263 28.2907 21.4099C29.0551 20.2785 29.4909 18.9175 29.4909 17.4566C29.4909 15.932 29.0147 14.5106 28.188 13.3452C28.1618 13.309 28.1421 13.2529 28.1684 13.2112C28.1902 13.1772 28.2306 13.1596 28.2688 13.1508C28.5473 13.0937 28.8334 13.0618 29.1327 13.0618ZM15.3171 13.0617C15.6163 13.0617 15.9025 13.0936 16.182 13.1507C16.2192 13.1595 16.2607 13.1781 16.2825 13.2111C16.3076 13.2528 16.2891 13.3089 16.2628 13.3451C15.4361 14.5105 14.96 15.9319 14.96 17.4565C14.96 18.9174 15.3957 20.2784 16.1602 21.4097C16.2388 21.5262 16.1689 21.6833 16.0302 21.7074C15.838 21.7415 15.6415 21.759 15.4405 21.7645C13.4365 21.8173 11.6379 20.52 11.141 18.567C10.4038 15.6661 12.5651 13.0617 15.3171 13.0617Z" fill="#5D7285"/>
</svg>
